<mxfile host="app.diagrams.net" modified="2022-09-14T15:19:46.310Z" agent="5.0 (X11)" etag="kFvSMEirKxMTwkKL3wLa" version="20.3.0" type="github">
  <diagram id="C5RBs43oDa-KdzZeNtuy" name="Page-1">
    <mxGraphModel dx="1586" dy="2102" grid="1" gridSize="10" guides="1" tooltips="1" connect="1" arrows="1" fold="1" page="1" pageScale="1" pageWidth="827" pageHeight="1169" math="0" shadow="0">
      <root>
        <mxCell id="WIyWlLk6GJQsqaUBKTNV-0" />
        <mxCell id="WIyWlLk6GJQsqaUBKTNV-1" parent="WIyWlLk6GJQsqaUBKTNV-0" />
        <mxCell id="7Oava_8hdGPEssJIUbbD-33" style="edgeStyle=orthogonalEdgeStyle;rounded=0;orthogonalLoop=1;jettySize=auto;html=1;exitX=0.5;exitY=1;exitDx=0;exitDy=0;exitPerimeter=0;entryX=0.5;entryY=0;entryDx=0;entryDy=0;" edge="1" parent="WIyWlLk6GJQsqaUBKTNV-1" source="7Oava_8hdGPEssJIUbbD-1" target="7Oava_8hdGPEssJIUbbD-3">
          <mxGeometry relative="1" as="geometry" />
        </mxCell>
        <mxCell id="7Oava_8hdGPEssJIUbbD-1" value="start" style="strokeWidth=2;html=1;shape=mxgraph.flowchart.start_1;whiteSpace=wrap;" vertex="1" parent="WIyWlLk6GJQsqaUBKTNV-1">
          <mxGeometry x="57.5" y="-10" width="100" height="60" as="geometry" />
        </mxCell>
        <mxCell id="7Oava_8hdGPEssJIUbbD-32" style="edgeStyle=orthogonalEdgeStyle;rounded=0;orthogonalLoop=1;jettySize=auto;html=1;entryX=0.5;entryY=0;entryDx=0;entryDy=0;" edge="1" parent="WIyWlLk6GJQsqaUBKTNV-1" source="7Oava_8hdGPEssJIUbbD-3" target="7Oava_8hdGPEssJIUbbD-4">
          <mxGeometry relative="1" as="geometry" />
        </mxCell>
        <mxCell id="7Oava_8hdGPEssJIUbbD-3" value="Ввод новой формулы " style="rounded=1;whiteSpace=wrap;html=1;absoluteArcSize=1;arcSize=14;strokeWidth=2;" vertex="1" parent="WIyWlLk6GJQsqaUBKTNV-1">
          <mxGeometry x="59.5" y="70" width="100" height="60" as="geometry" />
        </mxCell>
        <mxCell id="7Oava_8hdGPEssJIUbbD-15" style="edgeStyle=orthogonalEdgeStyle;rounded=0;orthogonalLoop=1;jettySize=auto;html=1;entryX=0.523;entryY=-0.002;entryDx=0;entryDy=0;entryPerimeter=0;" edge="1" parent="WIyWlLk6GJQsqaUBKTNV-1" source="7Oava_8hdGPEssJIUbbD-4" target="7Oava_8hdGPEssJIUbbD-6">
          <mxGeometry relative="1" as="geometry" />
        </mxCell>
        <mxCell id="7Oava_8hdGPEssJIUbbD-31" style="edgeStyle=orthogonalEdgeStyle;rounded=0;orthogonalLoop=1;jettySize=auto;html=1;" edge="1" parent="WIyWlLk6GJQsqaUBKTNV-1" source="7Oava_8hdGPEssJIUbbD-4" target="7Oava_8hdGPEssJIUbbD-29">
          <mxGeometry relative="1" as="geometry" />
        </mxCell>
        <mxCell id="7Oava_8hdGPEssJIUbbD-4" value="В ячейке ранее была записана формула?" style="rhombus;whiteSpace=wrap;html=1;" vertex="1" parent="WIyWlLk6GJQsqaUBKTNV-1">
          <mxGeometry x="40" y="200" width="140" height="100" as="geometry" />
        </mxCell>
        <mxCell id="7Oava_8hdGPEssJIUbbD-16" style="edgeStyle=orthogonalEdgeStyle;rounded=0;orthogonalLoop=1;jettySize=auto;html=1;entryX=0.5;entryY=0;entryDx=0;entryDy=0;" edge="1" parent="WIyWlLk6GJQsqaUBKTNV-1" source="7Oava_8hdGPEssJIUbbD-6" target="7Oava_8hdGPEssJIUbbD-9">
          <mxGeometry relative="1" as="geometry" />
        </mxCell>
        <mxCell id="7Oava_8hdGPEssJIUbbD-6" value="Создать копию существующего графа нижестоящих связей" style="rounded=1;whiteSpace=wrap;html=1;absoluteArcSize=1;arcSize=14;strokeWidth=2;" vertex="1" parent="WIyWlLk6GJQsqaUBKTNV-1">
          <mxGeometry x="10" y="330" width="190" height="70" as="geometry" />
        </mxCell>
        <mxCell id="7Oava_8hdGPEssJIUbbD-17" style="edgeStyle=orthogonalEdgeStyle;rounded=0;orthogonalLoop=1;jettySize=auto;html=1;entryX=0.5;entryY=0;entryDx=0;entryDy=0;" edge="1" parent="WIyWlLk6GJQsqaUBKTNV-1" source="7Oava_8hdGPEssJIUbbD-9" target="7Oava_8hdGPEssJIUbbD-10">
          <mxGeometry relative="1" as="geometry" />
        </mxCell>
        <mxCell id="7Oava_8hdGPEssJIUbbD-9" value="очистить существующие связи, заменить на предполагаемые новые связи" style="rounded=1;whiteSpace=wrap;html=1;absoluteArcSize=1;arcSize=14;strokeWidth=2;" vertex="1" parent="WIyWlLk6GJQsqaUBKTNV-1">
          <mxGeometry x="10" y="430" width="190" height="70" as="geometry" />
        </mxCell>
        <mxCell id="7Oava_8hdGPEssJIUbbD-18" style="edgeStyle=orthogonalEdgeStyle;rounded=0;orthogonalLoop=1;jettySize=auto;html=1;entryX=0.5;entryY=0;entryDx=0;entryDy=0;entryPerimeter=0;" edge="1" parent="WIyWlLk6GJQsqaUBKTNV-1">
          <mxGeometry relative="1" as="geometry">
            <mxPoint x="104.02857142857135" y="561" as="sourcePoint" />
            <mxPoint x="106.5" y="581" as="targetPoint" />
          </mxGeometry>
        </mxCell>
        <mxCell id="7Oava_8hdGPEssJIUbbD-10" value="Поиск цикла во временном графе" style="rounded=1;whiteSpace=wrap;html=1;absoluteArcSize=1;arcSize=14;strokeWidth=2;" vertex="1" parent="WIyWlLk6GJQsqaUBKTNV-1">
          <mxGeometry x="10" y="530" width="190" height="30" as="geometry" />
        </mxCell>
        <mxCell id="7Oava_8hdGPEssJIUbbD-13" style="edgeStyle=orthogonalEdgeStyle;rounded=0;orthogonalLoop=1;jettySize=auto;html=1;exitX=0.5;exitY=1;exitDx=0;exitDy=0;exitPerimeter=0;entryX=0.5;entryY=0;entryDx=0;entryDy=0;" edge="1" parent="WIyWlLk6GJQsqaUBKTNV-1" source="7Oava_8hdGPEssJIUbbD-11" target="7Oava_8hdGPEssJIUbbD-12">
          <mxGeometry relative="1" as="geometry" />
        </mxCell>
        <mxCell id="7Oava_8hdGPEssJIUbbD-14" value="да" style="edgeLabel;html=1;align=center;verticalAlign=middle;resizable=0;points=[];" vertex="1" connectable="0" parent="7Oava_8hdGPEssJIUbbD-13">
          <mxGeometry x="0.1548" relative="1" as="geometry">
            <mxPoint as="offset" />
          </mxGeometry>
        </mxCell>
        <mxCell id="7Oava_8hdGPEssJIUbbD-22" style="edgeStyle=orthogonalEdgeStyle;rounded=0;orthogonalLoop=1;jettySize=auto;html=1;entryX=0;entryY=0.5;entryDx=0;entryDy=0;" edge="1" parent="WIyWlLk6GJQsqaUBKTNV-1" source="7Oava_8hdGPEssJIUbbD-11" target="7Oava_8hdGPEssJIUbbD-19">
          <mxGeometry relative="1" as="geometry" />
        </mxCell>
        <mxCell id="7Oava_8hdGPEssJIUbbD-27" value="нет" style="edgeLabel;html=1;align=center;verticalAlign=middle;resizable=0;points=[];" vertex="1" connectable="0" parent="7Oava_8hdGPEssJIUbbD-22">
          <mxGeometry x="0.1822" y="-2" relative="1" as="geometry">
            <mxPoint as="offset" />
          </mxGeometry>
        </mxCell>
        <mxCell id="7Oava_8hdGPEssJIUbbD-11" value="цикл во временной копии графа найден?" style="strokeWidth=2;html=1;shape=mxgraph.flowchart.decision;whiteSpace=wrap;" vertex="1" parent="WIyWlLk6GJQsqaUBKTNV-1">
          <mxGeometry x="47.5" y="580" width="120" height="100" as="geometry" />
        </mxCell>
        <mxCell id="7Oava_8hdGPEssJIUbbD-12" value="Выбросить исключение &lt;code class=&quot;code-inline code-inline_theme_light&quot;&gt;CircularDependencyException. Значения ячеек не меняется&lt;br&gt;&lt;/code&gt;" style="rounded=1;whiteSpace=wrap;html=1;absoluteArcSize=1;arcSize=14;strokeWidth=2;" vertex="1" parent="WIyWlLk6GJQsqaUBKTNV-1">
          <mxGeometry x="5" y="710" width="205" height="60" as="geometry" />
        </mxCell>
        <mxCell id="7Oava_8hdGPEssJIUbbD-23" style="edgeStyle=orthogonalEdgeStyle;rounded=0;orthogonalLoop=1;jettySize=auto;html=1;entryX=0.5;entryY=0;entryDx=0;entryDy=0;" edge="1" parent="WIyWlLk6GJQsqaUBKTNV-1" source="7Oava_8hdGPEssJIUbbD-19" target="7Oava_8hdGPEssJIUbbD-21">
          <mxGeometry relative="1" as="geometry" />
        </mxCell>
        <mxCell id="7Oava_8hdGPEssJIUbbD-19" value="Переписать текущий граф нижестоящих ячеек" style="rounded=1;whiteSpace=wrap;html=1;absoluteArcSize=1;arcSize=14;strokeWidth=2;" vertex="1" parent="WIyWlLk6GJQsqaUBKTNV-1">
          <mxGeometry x="280" y="580" width="100" height="100" as="geometry" />
        </mxCell>
        <mxCell id="7Oava_8hdGPEssJIUbbD-26" value="" style="edgeStyle=orthogonalEdgeStyle;rounded=0;orthogonalLoop=1;jettySize=auto;html=1;" edge="1" parent="WIyWlLk6GJQsqaUBKTNV-1" source="7Oava_8hdGPEssJIUbbD-20" target="7Oava_8hdGPEssJIUbbD-25">
          <mxGeometry relative="1" as="geometry" />
        </mxCell>
        <mxCell id="7Oava_8hdGPEssJIUbbD-20" value="Запустить инвалидацию кеша текущей и всех вышестоящих ячеек." style="rounded=1;whiteSpace=wrap;html=1;absoluteArcSize=1;arcSize=14;strokeWidth=2;" vertex="1" parent="WIyWlLk6GJQsqaUBKTNV-1">
          <mxGeometry x="280" y="830" width="100" height="100" as="geometry" />
        </mxCell>
        <mxCell id="7Oava_8hdGPEssJIUbbD-24" style="edgeStyle=orthogonalEdgeStyle;rounded=0;orthogonalLoop=1;jettySize=auto;html=1;entryX=0.5;entryY=0;entryDx=0;entryDy=0;" edge="1" parent="WIyWlLk6GJQsqaUBKTNV-1" source="7Oava_8hdGPEssJIUbbD-21" target="7Oava_8hdGPEssJIUbbD-20">
          <mxGeometry relative="1" as="geometry" />
        </mxCell>
        <mxCell id="7Oava_8hdGPEssJIUbbD-21" value="Переписать текущий граф вышестоящих ячеек" style="rounded=1;whiteSpace=wrap;html=1;absoluteArcSize=1;arcSize=14;strokeWidth=2;" vertex="1" parent="WIyWlLk6GJQsqaUBKTNV-1">
          <mxGeometry x="280" y="700" width="100" height="100" as="geometry" />
        </mxCell>
        <mxCell id="7Oava_8hdGPEssJIUbbD-25" value="конец" style="ellipse;whiteSpace=wrap;html=1;rounded=1;arcSize=14;strokeWidth=2;" vertex="1" parent="WIyWlLk6GJQsqaUBKTNV-1">
          <mxGeometry x="270" y="1030" width="120" height="60" as="geometry" />
        </mxCell>
        <mxCell id="7Oava_8hdGPEssJIUbbD-28" value="да" style="text;html=1;align=center;verticalAlign=middle;resizable=0;points=[];autosize=1;strokeColor=none;fillColor=none;" vertex="1" parent="WIyWlLk6GJQsqaUBKTNV-1">
          <mxGeometry x="90" y="295" width="40" height="30" as="geometry" />
        </mxCell>
        <mxCell id="7Oava_8hdGPEssJIUbbD-30" style="edgeStyle=orthogonalEdgeStyle;rounded=0;orthogonalLoop=1;jettySize=auto;html=1;entryX=1;entryY=0.5;entryDx=0;entryDy=0;" edge="1" parent="WIyWlLk6GJQsqaUBKTNV-1" source="7Oava_8hdGPEssJIUbbD-29" target="7Oava_8hdGPEssJIUbbD-10">
          <mxGeometry relative="1" as="geometry" />
        </mxCell>
        <mxCell id="7Oava_8hdGPEssJIUbbD-29" value="Создать новый граф нижестоящих связей" style="rounded=1;whiteSpace=wrap;html=1;absoluteArcSize=1;arcSize=14;strokeWidth=2;" vertex="1" parent="WIyWlLk6GJQsqaUBKTNV-1">
          <mxGeometry x="250" y="330" width="190" height="70" as="geometry" />
        </mxCell>
      </root>
    </mxGraphModel>
  </diagram>
</mxfile>
